# File created by Blade
# Date/Time:  Thu Jan 22 19:49:01 2015
# Frame Rate: 120.000 fps
#------------------------------------------------------
:FULLY-SPECIFIED
:DEGREES
3731
root -1.805779 33.139815 3.595671 9.132368 -3.769767 3.130716
RightUpLeg -1.958501 -7.196678 1.230265
RightLeg 0.345770 -0.000000 -0.000000
RightFoot -12.190937 -4.731073 -0.634089
RightToeBase 1.719530 -0.000000 -0.000000
LeftUpLeg -2.787609 2.908417 -3.259603
LeftLeg 1.667650 -0.000000 -0.000000
LeftFoot -10.863813 0.662675 -12.959368
LeftToeBase 7.530308 -0.000000 -0.000000
Spine -10.405764 -2.511695 -0.533702
RightShoulder -19.601455 -10.182597 -26.916441
RightArm 19.530117 32.339471 42.322233
RightForeArm -7.047247 0.000000 10.635567
RightHand 9.699280 -0.000000 7.935807
RightHandThumb1 -24.326973 -0.000000 -32.862282
LeftShoulder -24.065830 4.867688 29.860114
LeftArm 13.375397 -31.299145 -39.185383
LeftForeArm 21.931188 -0.000000 0.175757
LeftHand -2.073281 0.000000 -9.764264
LeftHandThumb1 -26.253704 0.000000 33.147579
Head -2.877115 3.948268 0.450646
3732
root -1.802660 33.140365 3.591331 9.138957 -3.773062 3.128698
RightUpLeg -1.974561 -7.202960 1.228352
RightLeg 0.348220 -0.000000 -0.000000
RightFoot -12.190580 -4.719700 -0.630935
RightToeBase 1.712155 -0.000000 -0.000000
LeftUpLeg -2.804035 2.906330 -3.262070
LeftLeg 1.670433 -0.000000 -0.000000
LeftFoot -10.868872 0.658332 -12.989702
LeftToeBase 7.618371 -0.000000 -0.000000
Spine -10.423065 -2.526685 -0.511493
RightShoulder -19.588725 -10.176701 -26.921468
RightArm 19.570402 32.298107 42.336298
RightForeArm -7.071850 0.000000 10.639947
RightHand 9.681006 -0.000000 7.946100
RightHandThumb1 -24.326973 -0.000000 -32.862282
LeftShoulder -24.058669 4.875922 29.850788
LeftArm 13.390034 -31.310893 -39.241625
LeftForeArm 21.953135 0.000000 0.156561
LeftHand -2.068325 -0.000000 -9.781545
LeftHandThumb1 -26.253704 0.000000 33.147579
Head -2.838422 3.947908 0.466684
3733
root -1.799174 33.140364 3.589087 9.127623 -3.776307 3.126440
RightUpLeg -1.966064 -7.203546 1.222903
RightLeg 0.345903 -0.000000 -0.000000
RightFoot -12.191302 -4.712372 -0.625827
RightToeBase 1.750708 -0.000000 -0.000000
LeftUpLeg -2.797897 2.899598 -3.267075
LeftLeg 1.674573 -0.000000 -0.000000
LeftFoot -10.872991 0.674972 -12.973447
LeftToeBase 7.591984 -0.000000 -0.000000
Spine -10.419601 -2.527348 -0.493611
RightShoulder -19.589635 -10.158302 -26.921643
RightArm 19.591329 32.241144 42.327852
RightForeArm -7.092398 -0.000000 10.648151
RightHand 9.695263 -0.000000 7.971597
RightHandThumb1 -24.326973 -0.000000 -32.862282
LeftShoulder -24.048638 4.874150 29.848829
LeftArm 13.408980 -31.324938 -39.301080
LeftForeArm 22.034378 0.000000 0.149061
LeftHand -2.069536 0.000000 -9.808514
LeftHandThumb1 -26.253704 0.000000 33.147579
Head -2.831666 3.924129 0.507404
3734
root -1.794726 33.140707 3.586159 9.123212 -3.772978 3.133305
RightUpLeg -1.970658 -7.206232 1.208710
RightLeg 0.354832 -0.000000 -0.000000
RightFoot -12.196238 -4.709273 -0.603505
RightToeBase 1.735349 -0.000000 -0.000000
LeftUpLeg -2.806927 2.878902 -3.279222
LeftLeg 1.689230 -0.000000 -0.000000
LeftFoot -10.868579 0.687788 -12.947656
LeftToeBase 7.540181 -0.000000 -0.000000
Spine -10.425887 -2.540806 -0.477855
RightShoulder -19.573392 -10.163295 -26.925567
RightArm 19.616311 32.163723 42.307761
RightForeArm -7.106737 -0.000000 10.645422
RightHand 9.662683 0.000000 7.933482
RightHandThumb1 -24.326973 -0.000000 -32.862282
LeftShoulder -24.052200 4.877754 29.841567
LeftArm 13.444777 -31.326730 -39.356636
LeftForeArm 22.127074 -0.000000 0.134103
LeftHand -2.057571 0.000000 -9.876030
LeftHandThumb1 -26.253704 0.000000 33.147579
Head -2.809027 3.917482 0.522703
3735
root -1.791206 33.140843 3.583431 9.117104 -3.777469 3.134965
RightUpLeg -1.973296 -7.214525 1.203096
RightLeg 0.361775 -0.000000 -0.000000
RightFoot -12.195921 -4.706049 -0.625002
RightToeBase 1.723435 -0.000000 -0.000000
LeftUpLeg -2.809751 2.862285 -3.286307
LeftLeg 1.697784 -0.000000 -0.000000
LeftFoot -10.878143 0.705561 -12.969710
LeftToeBase 7.568324 -0.000000 -0.000000
Spine -10.428166 -2.546694 -0.462347
RightShoulder -19.567267 -10.162737 -26.931968
RightArm 19.648346 32.153905 42.324007
RightForeArm -7.180700 -0.000000 10.658651
RightHand 9.671684 -0.000000 7.951827
RightHandThumb1 -24.326973 -0.000000 -32.862282
LeftShoulder -24.049035 4.871388 29.837629
LeftArm 13.452249 -31.311388 -39.380841
LeftForeArm 22.190934 -0.000000 0.137464
LeftHand -2.071495 -0.000000 -9.855467
LeftHandThumb1 -26.253704 0.000000 33.147579
Head -2.802240 3.916296 0.549865
3736
root -1.787706 33.140913 3.581427 9.107716 -3.787923 3.135558
RightUpLeg -1.974846 -7.197133 1.194518
RightLeg 0.372952 -0.000000 -0.000000
RightFoot -12.201492 -4.713653 -0.623583
RightToeBase 1.716179 -0.000000 -0.000000
LeftUpLeg -2.806762 2.859261 -3.292758
LeftLeg 1.704705 -0.000000 -0.000000
LeftFoot -10.880694 0.709180 -12.965894
LeftToeBase 7.564345 -0.000000 -0.000000
Spine -10.430323 -2.545682 -0.445327
RightShoulder -19.556401 -10.166151 -26.942446
RightArm 19.669433 32.153374 42.339871
RightForeArm -7.218771 -0.000000 10.684072
RightHand 9.668129 0.000000 7.956530
RightHandThumb1 -24.326973 -0.000000 -32.862282
LeftShoulder -24.045774 4.869805 29.831380
LeftArm 13.463018 -31.290858 -39.403172
LeftForeArm 22.338489 0.000000 0.143077
LeftHand -2.039941 -0.000000 -9.906257
LeftHandThumb1 -26.253704 0.000000 33.147579
Head -2.772550 3.910203 0.545374
3737
root -1.785581 33.141077 3.579928 9.089045 -3.804547 3.137084
RightUpLeg -1.965127 -7.168489 1.186296
RightLeg 0.381630 -0.000000 -0.000000
RightFoot -12.211501 -4.737317 -0.625668
RightToeBase 1.750091 -0.000000 -0.000000
LeftUpLeg -2.791774 2.885749 -3.297322
LeftLeg 1.709215 -0.000000 -0.000000
LeftFoot -10.874883 0.683491 -12.962188
LeftToeBase 7.572983 -0.000000 -0.000000
Spine -10.416451 -2.542035 -0.446131
RightShoulder -19.537000 -10.113704 -26.933972
RightArm 19.632843 32.077624 42.273098
RightForeArm -7.207309 -0.000000 10.696397
RightHand 9.677089 0.000000 7.929191
RightHandThumb1 -24.326973 -0.000000 -32.862282
LeftShoulder -24.054249 4.852775 29.846287
LeftArm 13.471463 -31.235535 -39.409383
LeftForeArm 22.408934 0.000000 0.153307
LeftHand -2.036356 -0.000000 -9.962151
LeftHandThumb1 -26.253704 0.000000 33.147579
Head -2.771911 3.922491 0.579377
3738
root -1.781600 33.141036 3.577736 9.080533 -3.812062 3.143674
RightUpLeg -1.975194 -7.185484 1.173204
RightLeg 0.407469 -0.000000 -0.000000
RightFoot -12.223995 -4.721575 -0.633740
RightToeBase 1.729588 -0.000000 -0.000000
LeftUpLeg -2.790822 2.886464 -3.309773
LeftLeg 1.714446 -0.000000 -0.000000
LeftFoot -10.877829 0.682217 -12.973318
LeftToeBase 7.613447 -0.000000 -0.000000
Spine -10.417879 -2.538710 -0.437234
RightShoulder -19.530343 -10.098946 -26.946232
RightArm 19.633364 32.036991 42.251380
RightForeArm -7.202717 -0.000000 10.693195
RightHand 9.717328 -0.000000 7.928346
RightHandThumb1 -24.326973 -0.000000 -32.862282
LeftShoulder -24.048411 4.838167 29.849667
LeftArm 13.471141 -31.178461 -39.400719
LeftForeArm 22.454778 -0.000000 0.145272
LeftHand -2.039308 -0.000000 -9.988010
LeftHandThumb1 -26.253704 0.000000 33.147579
Head -2.760607 3.966197 0.552859
3739
root -1.778870 33.141402 3.576657 9.067635 -3.821237 3.145846
RightUpLeg -1.968970 -7.150753 1.164019
RightLeg 0.411241 -0.000000 -0.000000
RightFoot -12.220342 -4.748743 -0.621465
RightToeBase 1.743999 -0.000000 -0.000000
LeftUpLeg -2.777267 2.891884 -3.316259
LeftLeg 1.709676 -0.000000 -0.000000
LeftFoot -10.874132 0.680037 -12.986272
LeftToeBase 7.646840 -0.000000 -0.000000
Spine -10.414015 -2.538248 -0.428971
RightShoulder -19.528783 -10.116044 -26.935430
RightArm 19.659141 32.004656 42.228123
RightForeArm -7.161736 -0.000000 10.694088
RightHand 9.726640 -0.000000 7.921809
RightHandThumb1 -24.326973 -0.000000 -32.862282
LeftShoulder -24.055270 4.841105 29.849937
LeftArm 13.493981 -31.157145 -39.402689
LeftForeArm 22.495174 0.000000 0.141428
LeftHand -2.018303 0.000000 -10.044201
LeftHandThumb1 -26.253704 0.000000 33.147579
Head -2.760002 3.966076 0.561041
3740
root -1.776748 33.141386 3.575360 9.060729 -3.821342 3.143049
RightUpLeg -1.967214 -7.146273 1.161809
RightLeg 0.420668 -0.000000 -0.000000
RightFoot -12.222127 -4.747491 -0.611124
RightToeBase 1.722463 -0.000000 -0.000000
LeftUpLeg -2.776366 2.907228 -3.315213
LeftLeg 1.719635 -0.000000 -0.000000
LeftFoot -10.877251 0.647045 -12.995362
LeftToeBase 7.648326 -0.000000 -0.000000
Spine -10.422362 -2.538629 -0.415873
RightShoulder -19.530117 -10.127302 -26.935845
RightArm 19.671567 31.983125 42.215148
RightForeArm -7.149477 -0.000000 10.702064
RightHand 9.732280 -0.000000 7.956280
RightHandThumb1 -24.326973 -0.000000 -32.862282
LeftShoulder -24.042500 4.837632 29.853577
LeftArm 13.488255 -31.102703 -39.379428
LeftForeArm 22.463904 0.000000 0.167675
LeftHand -2.004296 -0.000000 -10.169155
LeftHandThumb1 -26.253704 0.000000 33.147579
Head -2.743464 3.968088 0.564403
